<?xml version="1.0" standalone="no"?>
<!DOCTYPE svg PUBLIC "-//W3C//DTD SVG 20010904//EN"
 "http://www.w3.org/TR/2001/REC-SVG-20010904/DTD/svg10.dtd">
<svg version="1.0" xmlns="http://www.w3.org/2000/svg"
 width="1223.000000pt" height="1223.000000pt" viewBox="0 0 1223.000000 1223.000000"
 preserveAspectRatio="xMidYMid meet">

<g transform="translate(0.000000,1223.000000) scale(0.100000,-0.100000)"
fill="#000000" stroke="none">
<path d="M5805 11884 c-232 -19 -415 -39 -550 -59 -1171 -177 -2254 -704
-3105 -1513 -703 -668 -1209 -1459 -1510 -2362 -218 -652 -313 -1284 -297
-1970 11 -464 59 -826 169 -1265 568 -2277 2462 -3986 4788 -4319 283 -41 422
-50 795 -50 392 -1 522 7 825 50 1458 207 2770 952 3696 2099 633 784 1057
1750 1209 2748 74 487 84 1033 29 1522 -140 1253 -706 2456 -1579 3354 -763
786 -1680 1320 -2730 1591 -458 118 -853 169 -1365 174 -179 2 -347 2 -375 0z
m730 -429 c346 -32 664 -84 885 -145 476 -131 728 -226 1085 -406 548 -276
973 -583 1400 -1009 554 -553 960 -1181 1238 -1915 163 -429 277 -921 317
-1365 6 -71 16 -157 21 -191 12 -79 12 -572 0 -666 -6 -40 -15 -127 -21 -193
-115 -1214 -643 -2351 -1500 -3229 -285 -292 -544 -508 -865 -723 -422 -283
-934 -530 -1365 -659 -324 -97 -459 -129 -745 -177 -330 -56 -420 -62 -870
-62 -278 0 -461 4 -540 13 -161 18 -330 40 -385 52 -25 5 -85 16 -135 25 -408
73 -888 236 -1331 451 -322 156 -776 447 -1019 653 -27 23 -72 61 -100 84
-390 327 -792 795 -1077 1252 -304 489 -554 1092 -672 1625 -10 41 -21 93 -27
115 -60 255 -119 805 -119 1115 0 284 47 727 111 1045 86 424 215 818 397
1211 64 138 98 204 157 309 12 22 37 67 55 100 53 97 197 320 294 455 457 639
1052 1172 1756 1572 118 67 402 204 555 268 510 212 1073 350 1600 390 77 6
145 13 150 15 31 11 608 3 750 -10z"/>
<path d="M5805 11370 c-55 -4 -140 -11 -190 -14 -49 -4 -115 -11 -145 -16 -30
-5 -109 -16 -175 -26 -66 -9 -172 -27 -235 -41 -63 -13 -124 -26 -135 -28 -11
-1 -40 -8 -65 -15 -25 -6 -56 -14 -70 -17 -101 -21 -459 -134 -550 -173 -25
-10 -90 -37 -145 -59 -157 -62 -218 -90 -393 -178 -1007 -513 -1824 -1334
-2337 -2350 -77 -152 -170 -365 -215 -490 -96 -264 -136 -396 -189 -608 -232
-937 -203 -1920 84 -2840 195 -626 512 -1224 919 -1730 206 -256 512 -570 736
-754 69 -57 134 -110 145 -120 11 -9 83 -62 160 -118 174 -125 322 -219 555
-352 79 -46 338 -171 455 -221 55 -23 114 -48 130 -55 53 -23 307 -112 410
-143 1347 -414 2820 -267 4060 406 700 379 1303 910 1781 1567 385 529 699
1209 845 1835 11 47 27 112 34 145 55 233 103 626 113 918 20 577 -38 1052
-202 1657 -17 63 -93 295 -106 325 -5 11 -20 53 -34 92 -14 40 -35 91 -46 113
-11 21 -20 44 -20 49 0 35 -245 522 -340 676 -252 410 -524 751 -851 1070
-315 307 -609 532 -994 762 -144 86 -387 214 -520 273 -27 12 -63 28 -80 36
-16 7 -84 34 -150 59 -66 25 -131 51 -145 57 -39 16 -297 100 -365 118 -16 4
-75 20 -129 35 -54 14 -111 28 -125 30 -14 3 -44 9 -66 15 -22 5 -67 14 -100
20 -33 5 -100 16 -150 25 -168 28 -280 43 -375 50 -52 3 -117 9 -145 11 -93
10 -540 12 -640 4z m435 -3062 c119 -170 286 -408 620 -883 108 -154 253 -359
320 -455 68 -96 178 -251 244 -345 65 -93 149 -213 185 -265 112 -162 223
-315 231 -318 5 -2 8 540 7 1203 -2 663 0 1211 4 1216 3 6 30 9 60 7 l54 -3 0
-1305 0 -1305 -325 0 -324 0 -127 180 c-70 99 -145 205 -166 235 -42 60 -111
157 -350 495 -85 121 -164 235 -176 254 -20 32 -22 33 -71 27 -28 -3 -374 -6
-768 -6 l-718 0 -2 -592 -3 -593 -280 0 -280 0 -2 1295 c-2 712 -1 1301 2
1308 3 9 188 12 877 12 l873 0 115 -162z m301 146 c248 -47 437 -217 521 -469
20 -61 23 -89 23 -225 0 -103 -5 -172 -14 -205 -19 -66 -58 -155 -68 -155 -4
0 -73 93 -153 207 -167 238 -355 505 -406 578 -155 219 -183 262 -184 273 0
18 178 16 281 -4z m-829 -2001 l3 -478 23 0 23 0 2 475 2 475 58 3 57 3 0
-481 0 -480 499 0 499 0 46 -52 c25 -29 46 -56 46 -60 0 -5 -411 -7 -912 -6
l-913 3 -2 525 c-2 289 -1 531 2 538 3 9 70 12 285 12 l280 0 2 -477z m-3193
-894 c138 -23 287 -122 326 -215 9 -22 17 -61 18 -89 l2 -50 -75 -3 c-83 -3
-100 7 -100 60 0 42 -23 80 -74 125 -105 93 -327 106 -460 28 -146 -85 -216
-268 -188 -488 31 -249 198 -387 443 -366 166 14 269 93 285 215 l6 54 86 0
85 0 -6 -58 c-6 -76 -34 -129 -96 -184 -72 -65 -137 -94 -281 -127 -62 -14
-233 -7 -305 13 -257 72 -412 287 -399 556 2 41 6 91 9 110 38 215 210 382
433 420 71 12 217 11 291 -1z m1264 0 c199 -37 359 -188 412 -389 36 -133 8
-349 -58 -458 -69 -115 -209 -215 -338 -241 -136 -28 -294 -19 -395 24 -108
45 -216 142 -266 239 -44 87 -59 156 -59 276 0 186 40 290 155 406 63 63 155
115 245 138 63 17 228 19 304 5z m884 -16 c7 -9 106 -205 220 -435 115 -230
210 -418 213 -418 3 0 66 125 140 277 74 152 171 349 215 437 l81 161 39 -1
c22 -1 64 -2 93 -3 l52 -1 -2 -547 -3 -548 -74 -3 c-41 -2 -78 1 -83 6 -4 4
-8 196 -8 425 0 229 -3 417 -6 417 -3 0 -99 -191 -214 -425 l-209 -425 -51 0
-50 0 -200 405 c-110 222 -200 409 -200 414 0 4 -7 14 -15 21 -13 11 -15 -38
-17 -411 l-3 -424 -49 -3 c-31 -2 -52 1 -57 9 -11 19 -11 1069 1 1083 16 20
172 10 187 -11z m1923 12 c142 -19 263 -106 310 -225 20 -48 17 -174 -5 -224
-37 -87 -122 -159 -230 -196 -49 -17 -95 -22 -257 -27 l-198 -6 -2 -206 -3
-206 -85 0 -85 0 -3 544 c-1 380 1 547 9 551 12 8 484 3 549 -5z m995 -9 c7
-11 65 -131 128 -266 63 -135 142 -303 176 -374 33 -70 61 -130 61 -131 0 -2
32 -70 70 -151 41 -85 67 -151 62 -156 -5 -5 -44 -8 -88 -6 l-79 3 -75 150
-75 150 -266 3 -266 2 -28 -62 c-15 -35 -48 -105 -73 -155 l-44 -93 -59 0
c-46 0 -59 3 -59 15 0 8 20 57 44 108 24 50 71 151 104 222 33 72 87 189 122
260 34 72 72 153 85 180 13 28 53 112 89 187 l65 137 46 -1 c36 0 49 -5 60
-22z m807 12 c9 -7 64 -67 124 -133 59 -66 186 -207 283 -314 97 -107 214
-239 261 -292 47 -54 88 -98 92 -98 4 -1 9 189 10 422 l3 422 35 2 c19 2 45 0
58 -2 l22 -5 -2 -548 -3 -547 -47 -3 c-52 -3 -46 -8 -138 94 -98 106 -404 447
-534 594 -75 85 -141 157 -147 158 -6 3 -9 -147 -9 -410 0 -227 0 -419 0 -425
0 -21 -97 -17 -108 5 -12 21 -10 1062 1 1080 5 6 25 12 46 12 20 0 44 -6 53
-12z m1389 -160 c68 -95 154 -217 192 -270 38 -54 72 -98 76 -98 4 0 14 12 23
28 9 15 61 90 117 167 55 77 117 164 138 194 21 30 55 76 76 102 37 48 39 49
93 49 90 0 94 10 -116 -286 -25 -35 -96 -135 -157 -223 l-113 -159 -2 -219 -3
-218 -82 -3 -83 -3 0 209 0 209 -113 159 c-61 88 -120 170 -129 184 -9 14 -39
57 -67 95 -117 164 -162 235 -156 245 3 6 45 10 95 10 l89 0 122 -172z m-1285
-1213 c4 -9 15 -20 25 -26 15 -7 23 -5 36 11 21 24 51 26 60 5 6 -18 -22 -54
-54 -66 -31 -12 -74 3 -96 34 -17 22 -18 29 -7 42 16 19 29 19 36 0z m-5298
-559 l-3 -481 -30 0 -30 0 -2 478 -1 478 21 8 c48 18 47 29 45 -483z m5999
482 c4 -7 8 -226 8 -486 l0 -473 -22 -5 c-49 -13 -47 -28 -49 477 0 292 3 479
9 487 5 6 18 12 28 12 10 0 21 -6 26 -12z m-5362 -33 c0 -18 -8 -21 -80 -25
l-80 -5 0 -35 0 -35 65 -5 c83 -7 106 -21 121 -71 16 -53 -6 -104 -56 -125
-42 -17 -156 -19 -173 -2 -17 17 -17 299 0 316 9 9 42 12 108 10 87 -3 95 -5
95 -23z m247 -65 c27 -47 53 -85 58 -85 6 0 27 36 47 80 21 44 42 83 48 87 14
11 29 4 33 -14 5 -25 -123 -283 -149 -302 -31 -21 -62 -20 -83 3 -21 23 -13
43 17 40 38 -2 45 1 52 21 5 15 -11 50 -54 122 -60 100 -68 118 -54 132 17 17
39 -5 85 -84z m413 35 c21 -30 44 -55 50 -55 6 0 29 25 50 55 24 35 44 55 54
53 30 -6 22 -38 -24 -99 -52 -69 -53 -58 21 -156 34 -45 36 -73 3 -73 -11 0
-34 23 -60 62 l-42 62 -29 -35 c-16 -19 -37 -46 -46 -61 -9 -16 -24 -28 -34
-28 -36 0 -30 29 16 92 25 34 46 68 46 75 0 8 -18 38 -40 68 -39 53 -47 75
-33 88 15 16 33 4 68 -48z m550 30 c0 -18 -8 -20 -77 -23 l-77 -3 -3 -137 -3
-137 -25 0 -25 0 -2 150 c-1 95 2 154 9 163 8 9 37 12 107 10 88 -3 96 -5 96
-23z m285 23 c0 -2 27 -66 60 -142 65 -151 72 -186 40 -186 -13 0 -25 12 -35
35 l-14 36 -73 -3 c-64 -3 -73 -6 -76 -23 -9 -48 -62 -68 -62 -24 0 21 105
276 122 296 9 11 38 19 38 11z m433 -73 c15 -39 34 -83 41 -100 58 -127 61
-137 41 -151 -26 -19 -33 -10 -81 108 -22 56 -45 103 -50 105 -5 2 -27 -41
-48 -95 -43 -107 -57 -128 -80 -119 -21 8 -20 29 3 80 10 23 35 83 56 132 20
50 42 96 48 103 21 25 42 6 70 -63z m442 65 c13 -21 -17 -40 -61 -40 l-44 0 0
-134 c0 -108 -3 -136 -15 -146 -31 -26 -39 4 -40 143 l-1 132 -52 3 c-42 2
-52 6 -52 21 0 10 3 21 7 24 11 12 251 8 258 -3z m380 -15 c0 -18 -8 -20 -87
-23 l-88 -3 0 -44 0 -45 65 0 c63 0 65 -1 65 -25 0 -17 -6 -25 -17 -26 -10 0
-38 -1 -63 -2 l-45 -2 -3 -42 c-3 -48 -8 -45 80 -43 72 2 98 -6 98 -30 0 -25
-19 -30 -125 -30 -83 0 -96 2 -105 19 -11 21 -14 278 -4 305 5 14 23 16 118
14 103 -3 111 -4 111 -23z m319 15 c53 -20 77 -106 47 -164 -15 -28 -80 -57
-121 -53 -23 2 -25 -1 -28 -50 -3 -51 -16 -69 -41 -53 -10 5 -12 47 -12 160 1
84 4 157 7 162 7 11 117 10 148 -2z m444 -10 c17 -11 32 -26 32 -34 0 -22 -30
-28 -56 -11 -13 8 -37 15 -53 15 -68 0 -112 -45 -113 -115 -1 -52 20 -88 63
-111 33 -16 51 -15 106 7 62 25 70 -26 8 -55 -66 -32 -144 -15 -189 41 -37 47
-45 67 -46 118 0 59 32 114 83 146 43 26 121 25 165 -1z m239 4 c3 -9 6 -39 7
-67 1 -75 21 -72 85 13 34 44 60 70 70 68 31 -6 22 -38 -28 -99 l-49 -62 59
-69 c32 -38 59 -72 59 -77 0 -5 -7 -14 -15 -21 -19 -16 -28 -9 -97 77 -65 79
-84 80 -80 3 4 -66 -15 -103 -42 -81 -13 11 -16 38 -16 166 0 83 3 155 7 158
12 12 34 7 40 -9z m403 -103 l5 -115 90 117 c50 64 95 117 101 117 29 0 34
-27 34 -171 0 -118 -3 -149 -15 -159 -12 -10 -18 -10 -30 0 -10 9 -15 40 -17
117 l-3 105 -82 -105 c-104 -131 -111 -137 -129 -112 -10 14 -14 55 -14 160 0
144 6 169 40 163 12 -3 16 -26 20 -117z m458 7 c1 -60 6 -108 10 -108 4 0 32
33 62 73 91 121 114 147 131 147 26 0 29 -20 29 -169 0 -101 -4 -142 -14 -156
-12 -16 -16 -17 -30 -6 -12 10 -16 37 -18 119 l-3 106 -92 -117 c-51 -64 -97
-117 -103 -117 -22 0 -30 46 -30 174 0 151 3 168 34 164 20 -3 21 -10 24 -110z
m-2894 -527 c34 -19 39 -30 26 -51 -8 -12 -14 -12 -45 3 -93 44 -171 -7 -169
-111 1 -63 44 -102 110 -102 24 0 55 7 68 15 21 14 24 14 36 0 15 -18 1 -39
-41 -61 -67 -34 -155 -4 -202 69 -94 145 68 323 217 238z m407 14 c64 -23 96
-59 108 -119 14 -65 1 -119 -36 -158 -86 -90 -225 -71 -282 39 -6 12 -11 48
-11 80 0 86 36 132 130 166 26 9 46 7 91 -8z m840 4 c33 -12 69 -36 69 -48 0
-3 -4 -12 -9 -20 -8 -12 -14 -12 -44 2 -68 33 -132 13 -162 -49 -36 -76 15
-164 95 -164 22 0 54 7 69 15 24 12 31 12 40 1 17 -20 2 -45 -36 -61 -82 -34
-174 0 -212 78 -47 96 -12 194 84 238 47 22 61 23 106 8z m-2516 -7 c6 -4 28
-47 49 -97 22 -49 50 -116 64 -147 13 -31 21 -61 17 -67 -13 -22 -42 -10 -58
24 l-17 35 -70 0 c-65 0 -70 -1 -76 -24 -8 -34 -36 -57 -54 -46 -17 10 -7 45
60 205 53 124 60 135 85 117z m330 -85 c27 -48 53 -87 57 -87 4 0 25 38 46 84
43 91 57 106 78 84 12 -12 7 -29 -36 -118 -72 -150 -85 -173 -114 -194 -32
-25 -79 -13 -84 21 -3 19 2 22 35 25 27 2 39 8 41 21 2 9 -24 65 -58 123 -51
86 -59 108 -49 120 6 8 17 13 23 11 6 -2 33 -42 61 -90z m580 68 c0 -17 -8
-21 -50 -25 l-50 -5 -5 -135 c-5 -127 -6 -135 -25 -135 -19 0 -20 8 -23 138
l-3 137 -49 0 c-50 0 -66 10 -56 36 5 12 28 14 133 12 120 -3 128 -4 128 -23z
m1229 -4 c31 -30 42 -78 26 -125 -14 -44 -48 -66 -104 -66 -49 0 -64 -18 -52
-65 8 -31 -20 -61 -40 -44 -11 9 -14 46 -14 164 0 83 3 155 8 159 4 4 39 6 79
4 59 -3 76 -8 97 -27z m654 17 c8 -8 12 -47 12 -110 0 -54 3 -98 8 -97 4 0 45
49 91 110 79 103 106 126 116 97 2 -7 6 -77 8 -156 3 -121 1 -145 -13 -157
-30 -27 -40 1 -40 112 0 57 -4 103 -8 103 -5 0 -44 -48 -87 -106 -125 -166
-135 -163 -135 42 0 78 3 149 6 158 7 19 25 21 42 4z m460 0 c7 -7 12 -38 12
-70 l0 -59 83 3 82 3 5 65 c4 57 8 65 25 65 19 0 20 -7 20 -160 0 -157 0 -160
-22 -163 -21 -3 -22 1 -25 65 l-3 68 -83 0 -84 0 -2 -63 c-2 -66 -18 -91 -43
-70 -10 8 -13 51 -13 163 0 83 3 155 7 158 10 11 28 8 41 -5z m627 -13 c0 -18
-8 -21 -80 -25 l-80 -5 -3 -132 c-2 -119 -5 -134 -22 -143 -15 -8 -21 -6 -27
7 -10 22 -9 295 1 312 5 8 39 11 109 9 94 -3 102 -4 102 -23z"/>
<path d="M4945 8342 c-3 -3 -5 -270 -5 -594 l0 -588 533 0 c552 0 627 5 701
42 58 29 116 77 116 95 0 9 -33 61 -72 117 -107 148 -130 182 -194 276 -32 47
-113 162 -179 255 -67 94 -158 223 -204 288 l-83 118 -304 -2 c-167 -1 -306
-4 -309 -7z"/>
<path d="M3552 5459 c-62 -12 -138 -57 -184 -109 -73 -82 -105 -168 -114 -300
-14 -204 66 -371 218 -455 50 -28 59 -30 168 -30 105 0 120 2 171 28 173 84
263 311 214 539 -7 37 -23 88 -34 113 -41 93 -139 183 -220 204 -53 14 -170
19 -219 10z"/>
<path d="M6210 5225 l0 -227 183 4 c197 3 217 8 280 67 47 43 61 79 61 156 0
105 -31 152 -132 198 -48 23 -65 25 -222 26 l-170 2 0 -226z"/>
<path d="M7481 5298 c-9 -22 -84 -181 -157 -334 -19 -39 -34 -74 -34 -78 0 -3
95 -6 211 -6 165 0 210 3 206 13 -43 98 -204 427 -210 427 -4 0 -11 -10 -16
-22z"/>
<path d="M3670 3875 c0 -53 15 -64 78 -57 31 3 47 11 59 28 14 22 14 26 -1 49
-15 22 -24 25 -76 25 l-60 0 0 -45z"/>
<path d="M5291 3960 c-29 -64 -27 -70 19 -70 46 0 49 11 20 75 l-18 40 -21
-45z"/>
<path d="M6807 4043 c-4 -3 -7 -30 -7 -60 l0 -53 36 0 c54 0 74 15 74 55 0 24
-7 39 -22 49 -23 16 -69 21 -81 9z"/>
<path d="M5854 3420 c-56 -23 -81 -113 -47 -170 21 -36 52 -50 108 -50 35 0
49 6 74 31 26 26 31 38 31 81 0 44 -4 54 -34 84 -27 27 -42 34 -72 33 -22 0
-49 -4 -60 -9z"/>
<path d="M4251 3337 c-11 -27 -21 -53 -21 -58 0 -5 18 -9 40 -9 47 0 50 12 21
75 l-19 40 -21 -48z"/>
<path d="M6297 3423 c-2 -5 -2 -32 1 -60 4 -52 4 -53 36 -53 62 0 91 49 55 93
-15 20 -30 27 -54 27 -19 0 -36 -3 -38 -7z"/>
</g>
</svg>
